<?xml version="1.0"?>
<svg xmlns="http://www.w3.org/2000/svg" xmlns:xlink="http://www.w3.org/1999/xlink" xmlns:svgjs="http://svgjs.com/svgjs" version="1.1" width="512" height="512" x="0" y="0" viewBox="0 0 512 512" style="enable-background:new 0 0 512 512" xml:space="preserve" class=""><g><g xmlns="http://www.w3.org/2000/svg"><path d="m504.5 447.472h-15.741v-3.998c0-12.303-10.01-22.313-22.313-22.313h-7.645v-286.161c0-4.143-3.357-7.5-7.5-7.5s-7.5 3.357-7.5 7.5v286.161h-14v-352.947c0-2.032 1.653-3.686 3.687-3.686h6.628c2.032 0 3.686 1.653 3.686 3.686v36.799c0 4.143 3.357 7.5 7.5 7.5s7.5-3.357 7.5-7.5v-36.799c0-10.304-8.383-18.686-18.686-18.686h-6.628c-10.304 0-18.687 8.382-18.687 18.686v23.433h-136.801v-23.433c0-10.304-8.383-18.686-18.686-18.686h-6.629c-10.302 0-18.685 8.382-18.685 18.686v158.823h-136.802v-48.823c0-10.304-8.382-18.686-18.686-18.686h-6.629c-10.304 0-18.686 8.382-18.686 18.686v41.329c0 4.143 3.357 7.5 7.5 7.5s7.5-3.357 7.5-7.5v-41.329c0-2.032 1.653-3.686 3.686-3.686h6.629c2.032 0 3.686 1.653 3.686 3.686v242.947h-14v-171.631c0-4.143-3.357-7.5-7.5-7.5s-7.5 3.357-7.5 7.5v171.631h-7.645c-12.303 0-22.313 10.01-22.313 22.313v3.998h-15.74c-4.143 0-7.5 3.357-7.5 7.5s3.357 7.5 7.5 7.5h497c4.143 0 7.5-3.357 7.5-7.5s-3.357-7.5-7.5-7.5zm-226.5-220.435v-30.131h136.802v30.131zm136.802 15v30.13h-136.802v-30.13zm-136.802 45.13h136.802v30.13h-136.802zm136.802-105.261h-136.802v-30.13h136.802zm-136.802 150.391h136.802v30.13h-136.802zm136.802-225.651v30.13h-136.802v-30.13zm-165.802-38.432c0-2.032 1.653-3.686 3.686-3.686h6.629c2.032 0 3.686 1.653 3.686 3.686v352.947h-14v-352.947zm-15 249.083h-136.802v-30.13h136.802zm-136.802 15h136.802v30.13h-136.802zm136.802-90.26v30.13h-136.802v-30.13zm-136.802 135.39h136.802v43.734h-136.802zm-58.957 70.045v-3.998c0-4.032 3.28-7.313 7.313-7.313h254.777c4.143 0 7.5-3.357 7.5-7.5s-3.357-7.5-7.5-7.5h-22.331v-43.734h136.802v43.734h-84.484c-4.143 0-7.5 3.357-7.5 7.5s3.357 7.5 7.5 7.5h136.129c4.032 0 7.313 3.28 7.313 7.313v3.998z" fill="#df4723" data-original="#000000" style="" class=""/></g></g></svg>

